<svg width="340" height="340" viewBox="0 0 340 340" fill="none" xmlns="http://www.w3.org/2000/svg">
<path d="M170 0C154.77 0 139.999 1.99325 125.95 5.75521L140.56 60.651C149.976 58.1135 159.785 56.6667 170 56.6667C180.215 56.6667 190.024 58.1135 199.44 60.651L214.049 5.75521C200.001 1.99325 185.229 0 170 0Z" fill="#FCD700"/>
<path d="M170 340C185.229 340 200.001 338.007 214.049 334.245L199.44 279.349C190.024 281.886 180.215 283.333 170 283.333C159.785 283.333 149.976 281.886 140.56 279.349L125.95 334.245C139.999 338.007 154.77 340 170 340Z" fill="#642365"/>
<path d="M340 170C340 154.77 338.007 139.999 334.245 125.95L279.349 140.56C281.886 149.976 283.333 159.785 283.333 170C283.333 180.215 281.886 190.024 279.349 199.44L334.245 214.049C338.007 200.001 340 185.229 340 170Z" fill="#EA382B"/>
<path d="M0 170C0 185.229 1.99325 200.001 5.75521 214.049L60.651 199.44C58.1135 190.024 56.6667 180.215 56.6667 170C56.6667 159.785 58.1135 149.976 60.651 140.56L5.75521 125.95C1.99325 139.999 0 154.77 0 170Z" fill="#1B7C5B"/>
<path d="M255 22.7757C241.811 15.161 228.021 9.50132 213.974 5.73511L199.178 60.5809C208.602 63.0917 217.82 66.7431 226.667 71.8505C235.513 76.9578 243.284 83.1153 250.17 90.0211L290.27 49.7846C279.985 39.5025 268.189 30.3904 255 22.7757Z" fill="#FF8E21"/>
<path d="M85.0001 317.224C98.1892 324.839 111.978 330.499 126.026 334.265L140.822 279.419C131.398 276.908 122.179 273.257 113.333 268.15C104.487 263.042 96.7158 256.885 89.8296 249.979L49.7297 290.215C60.0149 300.498 71.8109 309.61 85.0001 317.224Z" fill="#342E85"/>
<path d="M317.224 255C324.839 241.811 330.499 228.021 334.265 213.974L279.419 199.178C276.908 208.602 273.257 217.82 268.149 226.666C263.042 235.513 256.885 243.284 249.979 250.17L290.215 290.27C300.497 279.985 309.609 268.189 317.224 255Z" fill="#D31F35"/>
<path d="M22.7757 84.9999C15.161 98.189 9.50125 111.978 5.73511 126.025L60.581 140.821C63.0918 131.398 66.743 122.179 71.8504 113.333C76.9577 104.487 83.1153 96.7156 90.0211 89.8295L49.7846 49.7295C39.5024 60.0146 30.3904 71.8107 22.7757 84.9999Z" fill="#3C9D3B"/>
<path d="M85.0001 22.7757C71.8109 30.3904 60.0149 39.5025 49.7297 49.7846L89.8296 90.0211C96.7158 83.1153 104.487 76.9578 113.333 71.8505C122.179 66.7431 131.398 63.0917 140.822 60.5809L126.026 5.73511C111.978 9.50132 98.1892 15.161 85.0001 22.7757Z" fill="#7FB922"/>
<path d="M255 317.224C268.189 309.61 279.985 300.498 290.27 290.215L250.17 249.979C243.284 256.885 235.513 263.042 226.667 268.15C217.82 273.257 208.602 276.908 199.178 279.419L213.974 334.265C228.021 330.499 241.811 324.839 255 317.224Z" fill="#982245"/>
<path d="M317.224 84.9999C309.609 71.8107 300.497 60.0146 290.215 49.7295L249.979 89.8295C256.885 96.7156 263.042 104.487 268.149 113.333C273.257 122.179 276.908 131.398 279.419 140.821L334.265 126.025C330.499 111.978 324.839 98.189 317.224 84.9999Z" fill="#FC5B2A"/>
<path d="M22.7757 255C30.3904 268.189 39.5024 279.985 49.7846 290.27L90.0211 250.17C83.1153 243.284 76.9577 235.513 71.8504 226.666C66.743 217.82 63.0918 208.602 60.581 199.178L5.73511 213.974C9.50125 228.021 15.161 241.811 22.7757 255Z" fill="#054F96"/>
<path d="M71.8503 226.667H268.15L170 283.333L71.8503 226.667Z" fill="#642365"/>
<path d="M170 170L120.925 141.667L170 56.6667L219.075 141.667L170 170Z" fill="#FCD700"/>
<path d="M170 56.6667L71.8503 226.667V113.333L170 56.6667Z" fill="#3C9D3B"/>
<path d="M170 170L219.075 141.667L268.15 226.667H170V170Z" fill="#D31F35"/>
<path d="M268.149 226.667L170 56.6667L268.15 113.333L268.149 226.667Z" fill="#FC5B2A"/>
<path d="M170 170V226.667H71.8503L120.925 141.667L170 170Z" fill="#054F96"/>
</svg>
